<svg xmlns="http://www.w3.org/2000/svg" xmlns:xlink="http://www.w3.org/1999/xlink" width="400" height="400" preserveAspectRatio="xMidYMid meet" version="1.0" viewBox="0 0 231 134" zoomAndPan="magnify"><defs><clipPath id="cfd849e4fd"><path d="M 44.386719 108 L 47 108 L 47 111 L 44.386719 111 Z M 44.386719 108" clip-rule="nonzero"/></clipPath><clipPath id="5ff9a1f476"><path d="M 45.945312 110.480469 L 46.574219 109.851562 C 47.148438 109.277344 46.742188 108.292969 45.929688 108.292969 C 45.6875 108.292969 45.457031 108.390625 45.285156 108.558594 L 44.65625 109.191406 C 44.484375 109.359375 44.386719 109.59375 44.386719 109.835938 C 44.386719 110.648438 45.371094 111.054688 45.945312 110.480469 Z M 45.945312 110.480469" clip-rule="nonzero"/></clipPath><linearGradient id="e672fb1d4f" x1="22.48" x2="-.931" y1="73.346" y2="98.586" gradientTransform="matrix(0.113353, 0, 0, 0.113353, 44.388212, 99.78127)" gradientUnits="userSpaceOnUse"><stop offset="0" stop-color="#065EB1" stop-opacity="1"/><stop offset=".063" stop-color="#065EB1" stop-opacity="1"/><stop offset=".125" stop-color="#065DB0" stop-opacity="1"/><stop offset=".188" stop-color="#065CAF" stop-opacity="1"/><stop offset=".25" stop-color="#065BAF" stop-opacity="1"/><stop offset=".313" stop-color="#075AAE" stop-opacity="1"/><stop offset=".375" stop-color="#075AAD" stop-opacity="1"/><stop offset=".438" stop-color="#0759AD" stop-opacity="1"/><stop offset=".481" stop-color="#0758AC" stop-opacity="1"/><stop offset=".5" stop-color="#0757AB" stop-opacity="1"/><stop offset=".519" stop-color="#0757AB" stop-opacity="1"/><stop offset=".563" stop-color="#0756AB" stop-opacity="1"/><stop offset=".625" stop-color="#0756AA" stop-opacity="1"/><stop offset=".688" stop-color="#0755AA" stop-opacity="1"/><stop offset=".75" stop-color="#0854A9" stop-opacity="1"/><stop offset=".813" stop-color="#0853A8" stop-opacity="1"/><stop offset=".875" stop-color="#0853A7" stop-opacity="1"/><stop offset=".938" stop-color="#0852A7" stop-opacity="1"/><stop offset="1" stop-color="#0851A6" stop-opacity="1"/></linearGradient><clipPath id="3bbba0b896"><path d="M 52 99.78125 L 56 99.78125 L 56 103 L 52 103 Z M 52 99.78125" clip-rule="nonzero"/></clipPath><clipPath id="a27ed0f57b"><path d="M 54.460938 101.964844 L 55.085938 101.339844 C 55.660156 100.765625 55.253906 99.78125 54.441406 99.78125 C 54.199219 99.78125 53.96875 99.878906 53.796875 100.046875 L 53.171875 100.671875 C 53 100.84375 52.90625 101.078125 52.90625 101.316406 C 52.90625 102.132812 53.886719 102.539062 54.460938 101.964844 Z M 54.460938 101.964844" clip-rule="nonzero"/></clipPath><linearGradient id="c9263b6185" x1="97.571" x2="74.198" y1="-1.743" y2="23.456" gradientTransform="matrix(0.113353, 0, 0, 0.113353, 44.388212, 99.78127)" gradientUnits="userSpaceOnUse"><stop offset="0" stop-color="#0084D1" stop-opacity="1"/><stop offset=".25" stop-color="#0084D1" stop-opacity="1"/><stop offset=".375" stop-color="#0084D1" stop-opacity="1"/><stop offset=".438" stop-color="#0084D1" stop-opacity="1"/><stop offset=".481" stop-color="#0083D0" stop-opacity="1"/><stop offset=".5" stop-color="#0083D0" stop-opacity="1"/><stop offset=".519" stop-color="#0082CF" stop-opacity="1"/><stop offset=".563" stop-color="#0082CF" stop-opacity="1"/><stop offset=".625" stop-color="#0081CF" stop-opacity="1"/><stop offset=".688" stop-color="#0180CE" stop-opacity="1"/><stop offset=".75" stop-color="#017FCD" stop-opacity="1"/><stop offset=".813" stop-color="#017FCC" stop-opacity="1"/><stop offset=".875" stop-color="#017ECC" stop-opacity="1"/><stop offset=".938" stop-color="#017DCB" stop-opacity="1"/><stop offset="1" stop-color="#017CCA" stop-opacity="1"/></linearGradient><clipPath id="9de2962867"><path d="M 44.386719 108 L 51 108 L 51 115 L 44.386719 115 Z M 44.386719 108" clip-rule="nonzero"/></clipPath><clipPath id="6bbc622a2e"><path d="M 50.039062 108.292969 C 49.796875 108.292969 49.566406 108.390625 49.394531 108.5625 L 44.65625 113.300781 C 44.484375 113.46875 44.386719 113.703125 44.386719 113.945312 C 44.386719 114.757812 45.371094 115.164062 45.945312 114.589844 L 50.683594 109.851562 C 51.257812 109.277344 50.851562 108.292969 50.039062 108.292969 Z M 50.039062 108.292969" clip-rule="nonzero"/></clipPath><linearGradient id="fcd2971881" x1="58.021" x2="-.223" y1="72.699" y2="135.493" gradientTransform="matrix(0.113353, 0, 0, 0.113353, 44.388212, 99.78127)" gradientUnits="userSpaceOnUse"><stop offset="0" stop-color="#0468BA" stop-opacity="1"/><stop offset=".016" stop-color="#0468BA" stop-opacity="1"/><stop offset=".031" stop-color="#0568B9" stop-opacity="1"/><stop offset=".047" stop-color="#0567B9" stop-opacity="1"/><stop offset=".063" stop-color="#0566B8" stop-opacity="1"/><stop offset=".078" stop-color="#0566B8" stop-opacity="1"/><stop offset=".094" stop-color="#0565B7" stop-opacity="1"/><stop offset=".109" stop-color="#0565B7" stop-opacity="1"/><stop offset=".125" stop-color="#0564B6" stop-opacity="1"/><stop offset=".141" stop-color="#0564B6" stop-opacity="1"/><stop offset=".156" stop-color="#0563B5" stop-opacity="1"/><stop offset=".172" stop-color="#0563B5" stop-opacity="1"/><stop offset=".188" stop-color="#0562B4" stop-opacity="1"/><stop offset=".203" stop-color="#0562B4" stop-opacity="1"/><stop offset=".219" stop-color="#0661B4" stop-opacity="1"/><stop offset=".234" stop-color="#0660B3" stop-opacity="1"/><stop offset=".25" stop-color="#0660B3" stop-opacity="1"/><stop offset=".266" stop-color="#065FB2" stop-opacity="1"/><stop offset=".281" stop-color="#065FB2" stop-opacity="1"/><stop offset=".297" stop-color="#065EB1" stop-opacity="1"/><stop offset=".313" stop-color="#065EB1" stop-opacity="1"/><stop offset=".328" stop-color="#065DB0" stop-opacity="1"/><stop offset=".344" stop-color="#065DB0" stop-opacity="1"/><stop offset=".359" stop-color="#065CAF" stop-opacity="1"/><stop offset=".375" stop-color="#065CAF" stop-opacity="1"/><stop offset=".391" stop-color="#075BAF" stop-opacity="1"/><stop offset=".406" stop-color="#075AAE" stop-opacity="1"/><stop offset=".422" stop-color="#075AAE" stop-opacity="1"/><stop offset=".438" stop-color="#0759AD" stop-opacity="1"/><stop offset=".453" stop-color="#0759AD" stop-opacity="1"/><stop offset=".469" stop-color="#0758AC" stop-opacity="1"/><stop offset=".481" stop-color="#0758AC" stop-opacity="1"/><stop offset=".484" stop-color="#0757AC" stop-opacity="1"/><stop offset=".5" stop-color="#0757AB" stop-opacity="1"/><stop offset=".516" stop-color="#0757AB" stop-opacity="1"/><stop offset=".519" stop-color="#0756AA" stop-opacity="1"/><stop offset=".531" stop-color="#0756AA" stop-opacity="1"/><stop offset=".547" stop-color="#0756AA" stop-opacity="1"/><stop offset=".563" stop-color="#0755AA" stop-opacity="1"/><stop offset=".578" stop-color="#0855A9" stop-opacity="1"/><stop offset=".594" stop-color="#0854A9" stop-opacity="1"/><stop offset=".609" stop-color="#0853A8" stop-opacity="1"/><stop offset=".625" stop-color="#0853A8" stop-opacity="1"/><stop offset=".641" stop-color="#0852A7" stop-opacity="1"/><stop offset=".656" stop-color="#0852A7" stop-opacity="1"/><stop offset=".672" stop-color="#0851A6" stop-opacity="1"/><stop offset=".688" stop-color="#0851A6" stop-opacity="1"/><stop offset=".703" stop-color="#0850A5" stop-opacity="1"/><stop offset=".719" stop-color="#0850A5" stop-opacity="1"/><stop offset=".734" stop-color="#084FA4" stop-opacity="1"/><stop offset=".75" stop-color="#084FA4" stop-opacity="1"/><stop offset=".766" stop-color="#094EA4" stop-opacity="1"/><stop offset=".781" stop-color="#094DA3" stop-opacity="1"/><stop offset=".797" stop-color="#094DA3" stop-opacity="1"/><stop offset=".813" stop-color="#094CA2" stop-opacity="1"/><stop offset=".828" stop-color="#094CA2" stop-opacity="1"/><stop offset=".844" stop-color="#094BA1" stop-opacity="1"/><stop offset=".859" stop-color="#094BA1" stop-opacity="1"/><stop offset=".875" stop-color="#094AA0" stop-opacity="1"/><stop offset=".891" stop-color="#094AA0" stop-opacity="1"/><stop offset=".906" stop-color="#09499F" stop-opacity="1"/><stop offset=".922" stop-color="#09499F" stop-opacity="1"/><stop offset=".938" stop-color="#0A489F" stop-opacity="1"/><stop offset=".953" stop-color="#0A479E" stop-opacity="1"/><stop offset=".969" stop-color="#0A479E" stop-opacity="1"/><stop offset=".984" stop-color="#0A469D" stop-opacity="1"/><stop offset="1" stop-color="#0A469D" stop-opacity="1"/></linearGradient><clipPath id="d2a9565fb3"><path d="M 46 99.78125 L 69.875 99.78125 L 69.875 125.269531 L 46 125.269531 Z M 46 99.78125" clip-rule="nonzero"/></clipPath><clipPath id="7659d7bff6"><path d="M 69.605469 111.476562 L 64.59375 116.488281 C 64.378906 116.703125 64.066406 116.800781 63.765625 116.738281 C 62.882812 116.558594 62.703125 115.796875 63.34375 115.160156 L 65.554688 112.945312 C 65.660156 112.839844 65.710938 112.699219 65.710938 112.5625 C 65.710938 112.421875 65.660156 112.285156 65.554688 112.183594 C 65.339844 111.96875 65.003906 111.96875 64.789062 112.183594 L 58.269531 118.703125 C 58.164062 118.808594 58.113281 118.945312 58.113281 119.085938 C 58.113281 119.21875 58.164062 119.359375 58.269531 119.464844 C 58.476562 119.675781 58.820312 119.675781 59.035156 119.464844 L 59.804688 118.695312 C 60.390625 118.113281 61.402344 118.546875 61.359375 119.390625 C 61.347656 119.625 61.238281 119.84375 61.070312 120.007812 L 56.082031 125 C 55.867188 125.214844 55.554688 125.3125 55.253906 125.25 C 54.371094 125.070312 54.191406 124.308594 54.832031 123.671875 L 56.980469 121.519531 C 57.085938 121.414062 57.136719 121.28125 57.136719 121.140625 C 57.136719 121.003906 57.085938 120.863281 56.980469 120.757812 C 56.765625 120.546875 56.425781 120.546875 56.214844 120.757812 L 54.460938 122.507812 C 53.875 123.097656 52.863281 122.660156 52.90625 121.816406 C 52.917969 121.582031 53.027344 121.363281 53.195312 121.195312 L 61.222656 113.167969 C 61.328125 113.0625 61.382812 112.921875 61.382812 112.785156 C 61.382812 112.632812 61.316406 112.476562 61.1875 112.367188 C 60.96875 112.183594 60.636719 112.226562 60.4375 112.425781 L 54.464844 118.398438 C 53.875 118.988281 52.863281 118.550781 52.90625 117.707031 C 52.921875 117.472656 53.027344 117.253906 53.199219 117.085938 L 55.972656 114.3125 C 56.183594 114.101562 56.183594 113.757812 55.96875 113.546875 C 55.757812 113.335938 55.417969 113.335938 55.207031 113.546875 L 52.269531 116.488281 C 52.054688 116.703125 51.742188 116.796875 51.441406 116.734375 C 50.558594 116.554688 50.382812 115.792969 51.015625 115.160156 L 52.257812 113.933594 C 52.363281 113.828125 52.414062 113.6875 52.414062 113.550781 C 52.414062 113.417969 52.367188 113.289062 52.269531 113.183594 C 52.0625 112.960938 51.679688 112.984375 51.464844 113.203125 L 48.160156 116.488281 C 47.941406 116.703125 47.632812 116.800781 47.328125 116.738281 C 46.445312 116.558594 46.269531 115.796875 46.90625 115.160156 L 55.902344 106.160156 C 56.003906 106.054688 56.058594 105.917969 56.058594 105.777344 C 56.058594 105.640625 56.003906 105.5 55.902344 105.394531 C 55.6875 105.1875 55.347656 105.1875 55.136719 105.394531 L 54.464844 106.070312 C 53.875 106.65625 52.863281 106.222656 52.90625 105.375 C 52.921875 105.144531 53.027344 104.925781 53.199219 104.757812 L 57.90625 100.046875 C 58.117188 99.835938 58.425781 99.738281 58.730469 99.796875 C 59.621094 99.96875 59.800781 100.734375 59.160156 101.375 L 57.191406 103.339844 C 57.085938 103.445312 57.035156 103.585938 57.035156 103.726562 C 57.035156 103.863281 57.085938 104.003906 57.191406 104.109375 C 57.40625 104.320312 57.746094 104.320312 57.957031 104.109375 L 59.804688 102.257812 C 60.394531 101.671875 61.402344 102.109375 61.363281 102.957031 C 61.347656 103.1875 61.238281 103.40625 61.070312 103.570312 L 53.546875 111.113281 C 53.441406 111.21875 53.390625 111.359375 53.390625 111.496094 C 53.390625 111.636719 53.441406 111.773438 53.546875 111.878906 C 53.757812 112.09375 54.101562 112.09375 54.3125 111.878906 L 59.761719 106.410156 C 60.417969 105.753906 61.191406 105.945312 61.347656 106.859375 C 61.398438 107.15625 61.300781 107.449219 61.09375 107.660156 L 57.257812 111.5 C 57.046875 111.710938 57.046875 112.050781 57.257812 112.261719 C 57.46875 112.472656 57.808594 112.472656 58.019531 112.261719 L 61.722656 108.558594 C 61.933594 108.351562 62.238281 108.253906 62.542969 108.3125 C 63.433594 108.484375 63.613281 109.25 62.972656 109.890625 L 62.511719 110.347656 C 62.40625 110.453125 62.351562 110.59375 62.351562 110.730469 C 62.351562 110.886719 62.421875 111.039062 62.550781 111.148438 C 62.769531 111.332031 63.097656 111.292969 63.300781 111.089844 L 65.804688 108.585938 C 65.96875 108.421875 66.1875 108.308594 66.421875 108.296875 C 67.265625 108.25 67.707031 109.261719 67.117188 109.851562 L 66.84375 110.125 C 66.738281 110.230469 66.6875 110.371094 66.6875 110.507812 C 66.6875 110.648438 66.738281 110.785156 66.84375 110.890625 C 67.054688 111.105469 67.398438 111.105469 67.605469 110.890625 L 68.277344 110.222656 C 68.914062 109.589844 69.675781 109.765625 69.855469 110.648438 C 69.917969 110.949219 69.820312 111.257812 69.605469 111.476562 Z M 69.605469 111.476562" clip-rule="nonzero"/></clipPath><linearGradient id="7fee0fcadc" x1="221.32" x2="12.908" y1="-3.26" y2="221.434" gradientTransform="matrix(0.113353, 0, 0, 0.113353, 44.388212, 99.78127)" gradientUnits="userSpaceOnUse"><stop offset="0" stop-color="#0084D1" stop-opacity="1"/><stop offset=".25" stop-color="#0084D1" stop-opacity="1"/><stop offset=".313" stop-color="#0084D1" stop-opacity="1"/><stop offset=".328" stop-color="#0084D1" stop-opacity="1"/><stop offset=".336" stop-color="#0083D0" stop-opacity="1"/><stop offset=".344" stop-color="#0082CF" stop-opacity="1"/><stop offset=".352" stop-color="#0181CE" stop-opacity="1"/><stop offset=".359" stop-color="#0180CE" stop-opacity="1"/><stop offset=".367" stop-color="#017FCD" stop-opacity="1"/><stop offset=".375" stop-color="#017ECC" stop-opacity="1"/><stop offset=".383" stop-color="#017DCB" stop-opacity="1"/><stop offset=".391" stop-color="#017CCA" stop-opacity="1"/><stop offset=".398" stop-color="#017BC9" stop-opacity="1"/><stop offset=".406" stop-color="#027AC9" stop-opacity="1"/><stop offset=".414" stop-color="#0279C8" stop-opacity="1"/><stop offset=".422" stop-color="#0278C7" stop-opacity="1"/><stop offset=".43" stop-color="#0277C6" stop-opacity="1"/><stop offset=".438" stop-color="#0276C5" stop-opacity="1"/><stop offset=".445" stop-color="#0275C5" stop-opacity="1"/><stop offset=".453" stop-color="#0374C4" stop-opacity="1"/><stop offset=".461" stop-color="#0373C3" stop-opacity="1"/><stop offset=".462" stop-color="#0372C2" stop-opacity="1"/><stop offset=".469" stop-color="#0372C2" stop-opacity="1"/><stop offset=".477" stop-color="#0371C1" stop-opacity="1"/><stop offset=".484" stop-color="#0370C0" stop-opacity="1"/><stop offset=".492" stop-color="#036FC0" stop-opacity="1"/><stop offset=".5" stop-color="#036EBF" stop-opacity="1"/><stop offset=".508" stop-color="#046DBE" stop-opacity="1"/><stop offset=".516" stop-color="#046CBD" stop-opacity="1"/><stop offset=".523" stop-color="#046BBC" stop-opacity="1"/><stop offset=".531" stop-color="#046ABC" stop-opacity="1"/><stop offset=".538" stop-color="#0469BB" stop-opacity="1"/><stop offset=".539" stop-color="#0469BA" stop-opacity="1"/><stop offset=".547" stop-color="#0469BA" stop-opacity="1"/><stop offset=".555" stop-color="#0568B9" stop-opacity="1"/><stop offset=".563" stop-color="#0567B8" stop-opacity="1"/><stop offset=".57" stop-color="#0566B7" stop-opacity="1"/><stop offset=".578" stop-color="#0565B7" stop-opacity="1"/><stop offset=".586" stop-color="#0564B6" stop-opacity="1"/><stop offset=".594" stop-color="#0563B5" stop-opacity="1"/><stop offset=".602" stop-color="#0562B4" stop-opacity="1"/><stop offset=".609" stop-color="#0661B3" stop-opacity="1"/><stop offset=".617" stop-color="#0660B3" stop-opacity="1"/><stop offset=".625" stop-color="#065FB2" stop-opacity="1"/><stop offset=".633" stop-color="#065EB1" stop-opacity="1"/><stop offset=".641" stop-color="#065DB0" stop-opacity="1"/><stop offset=".648" stop-color="#065CAF" stop-opacity="1"/><stop offset=".656" stop-color="#075BAE" stop-opacity="1"/><stop offset=".664" stop-color="#075AAE" stop-opacity="1"/><stop offset=".672" stop-color="#0759AD" stop-opacity="1"/><stop offset=".68" stop-color="#0758AC" stop-opacity="1"/><stop offset=".688" stop-color="#0757AB" stop-opacity="1"/><stop offset=".695" stop-color="#0756AA" stop-opacity="1"/><stop offset=".703" stop-color="#0755A9" stop-opacity="1"/><stop offset=".711" stop-color="#0854A9" stop-opacity="1"/><stop offset=".719" stop-color="#0853A8" stop-opacity="1"/><stop offset=".727" stop-color="#0852A7" stop-opacity="1"/><stop offset=".734" stop-color="#0851A6" stop-opacity="1"/><stop offset=".742" stop-color="#0850A5" stop-opacity="1"/><stop offset=".75" stop-color="#084FA5" stop-opacity="1"/><stop offset=".758" stop-color="#094EA4" stop-opacity="1"/><stop offset=".766" stop-color="#094DA3" stop-opacity="1"/><stop offset=".773" stop-color="#094CA2" stop-opacity="1"/><stop offset=".781" stop-color="#094BA1" stop-opacity="1"/><stop offset=".789" stop-color="#094AA0" stop-opacity="1"/><stop offset=".797" stop-color="#0949A0" stop-opacity="1"/><stop offset=".805" stop-color="#09489F" stop-opacity="1"/><stop offset=".813" stop-color="#0A479E" stop-opacity="1"/><stop offset=".82" stop-color="#0A469D" stop-opacity="1"/><stop offset=".828" stop-color="#0A459C" stop-opacity="1"/><stop offset=".836" stop-color="#0A449C" stop-opacity="1"/><stop offset=".844" stop-color="#0A449B" stop-opacity="1"/><stop offset=".852" stop-color="#0A439A" stop-opacity="1"/><stop offset=".859" stop-color="#0B4299" stop-opacity="1"/><stop offset=".867" stop-color="#0B4198" stop-opacity="1"/><stop offset=".875" stop-color="#0B4097" stop-opacity="1"/><stop offset=".883" stop-color="#0B3F97" stop-opacity="1"/><stop offset=".891" stop-color="#0B3E96" stop-opacity="1"/><stop offset=".898" stop-color="#0B3D95" stop-opacity="1"/><stop offset=".906" stop-color="#0B3C94" stop-opacity="1"/><stop offset=".914" stop-color="#0C3B93" stop-opacity="1"/><stop offset=".922" stop-color="#0C3A93" stop-opacity="1"/><stop offset=".93" stop-color="#0C3992" stop-opacity="1"/><stop offset=".938" stop-color="#0C3891" stop-opacity="1"/><stop offset=".945" stop-color="#0C3790" stop-opacity="1"/><stop offset=".953" stop-color="#0C368F" stop-opacity="1"/><stop offset=".961" stop-color="#0D358E" stop-opacity="1"/><stop offset=".969" stop-color="#0D348E" stop-opacity="1"/><stop offset=".977" stop-color="#0D338D" stop-opacity="1"/><stop offset=".984" stop-color="#0D328C" stop-opacity="1"/><stop offset="1" stop-color="#0D328C" stop-opacity="1"/></linearGradient><clipPath id="e66420f5a3"><path d="M 67 114 L 69.875 114 L 69.875 117 L 67 117 Z M 67 114" clip-rule="nonzero"/></clipPath><clipPath id="126b90cbec"><path d="M 68.316406 114.292969 L 67.414062 115.199219 C 66.835938 115.773438 67.246094 116.757812 68.058594 116.757812 C 68.300781 116.757812 68.53125 116.660156 68.703125 116.488281 L 69.605469 115.582031 C 69.777344 115.414062 69.875 115.179688 69.875 114.9375 C 69.875 114.125 68.890625 113.71875 68.316406 114.292969 Z M 68.316406 114.292969" clip-rule="nonzero"/></clipPath><linearGradient id="b1894e1ab3" x1="225.717" x2="199.973" y1="123.778" y2="151.533" gradientTransform="matrix(0.113353, 0, 0, 0.113353, 44.388212, 99.78127)" gradientUnits="userSpaceOnUse"><stop offset="0" stop-color="#0084D1" stop-opacity="1"/><stop offset=".25" stop-color="#0084D1" stop-opacity="1"/><stop offset=".313" stop-color="#0083D0" stop-opacity="1"/><stop offset=".375" stop-color="#0082D0" stop-opacity="1"/><stop offset=".438" stop-color="#0081CF" stop-opacity="1"/><stop offset=".481" stop-color="#0180CE" stop-opacity="1"/><stop offset=".5" stop-color="#0180CD" stop-opacity="1"/><stop offset=".519" stop-color="#017FCD" stop-opacity="1"/><stop offset=".563" stop-color="#017FCD" stop-opacity="1"/><stop offset=".625" stop-color="#017ECC" stop-opacity="1"/><stop offset=".688" stop-color="#017DCB" stop-opacity="1"/><stop offset=".75" stop-color="#017CCB" stop-opacity="1"/><stop offset=".813" stop-color="#017BCA" stop-opacity="1"/><stop offset=".875" stop-color="#027BC9" stop-opacity="1"/><stop offset=".938" stop-color="#027AC8" stop-opacity="1"/><stop offset="1" stop-color="#0279C7" stop-opacity="1"/></linearGradient><clipPath id="9f6554bcaa"><path d="M 58 122 L 62 122 L 62 125.269531 L 58 125.269531 Z M 58 122" clip-rule="nonzero"/></clipPath><clipPath id="b170c0e910"><path d="M 59.804688 122.804688 L 58.898438 123.710938 C 58.324219 124.285156 58.730469 125.269531 59.542969 125.269531 C 59.785156 125.269531 60.019531 125.171875 60.191406 125 L 61.09375 124.09375 C 61.265625 123.925781 61.363281 123.691406 61.363281 123.449219 C 61.363281 122.636719 60.378906 122.230469 59.804688 122.804688 Z M 59.804688 122.804688" clip-rule="nonzero"/></clipPath><linearGradient id="a6eb9b34be" x1="150.624" x2="124.878" y1="198.87" y2="226.628" gradientTransform="matrix(0.113353, 0, 0, 0.113353, 44.388212, 99.78127)" gradientUnits="userSpaceOnUse"><stop offset="0" stop-color="#065CB0" stop-opacity="1"/><stop offset=".063" stop-color="#065CAF" stop-opacity="1"/><stop offset=".125" stop-color="#075BAE" stop-opacity="1"/><stop offset=".188" stop-color="#075AAE" stop-opacity="1"/><stop offset=".25" stop-color="#0759AD" stop-opacity="1"/><stop offset=".313" stop-color="#0758AC" stop-opacity="1"/><stop offset=".375" stop-color="#0757AB" stop-opacity="1"/><stop offset=".438" stop-color="#0756AA" stop-opacity="1"/><stop offset=".481" stop-color="#0755AA" stop-opacity="1"/><stop offset=".5" stop-color="#0855A9" stop-opacity="1"/><stop offset=".519" stop-color="#0854A9" stop-opacity="1"/><stop offset=".563" stop-color="#0854A8" stop-opacity="1"/><stop offset=".625" stop-color="#0853A8" stop-opacity="1"/><stop offset=".688" stop-color="#0852A7" stop-opacity="1"/><stop offset=".75" stop-color="#0851A6" stop-opacity="1"/><stop offset=".813" stop-color="#0850A6" stop-opacity="1"/><stop offset=".875" stop-color="#084FA5" stop-opacity="1"/><stop offset=".938" stop-color="#084EA4" stop-opacity="1"/><stop offset="1" stop-color="#094DA3" stop-opacity="1"/></linearGradient></defs><g clip-path="url(#cfd849e4fd)"><g clip-path="url(#5ff9a1f476)"><path fill="url(#e672fb1d4f)" fill-rule="nonzero" d="M 44.386719 108.292969 L 44.386719 111.054688 L 47.148438 111.054688 L 47.148438 108.292969 Z M 44.386719 108.292969"/></g></g><g clip-path="url(#3bbba0b896)"><g clip-path="url(#a27ed0f57b)"><path fill="url(#c9263b6185)" fill-rule="nonzero" d="M 52.90625 99.78125 L 52.90625 102.539062 L 55.660156 102.539062 L 55.660156 99.78125 Z M 52.90625 99.78125"/></g></g><g clip-path="url(#9de2962867)"><g clip-path="url(#6bbc622a2e)"><path fill="url(#fcd2971881)" fill-rule="nonzero" d="M 44.386719 108.292969 L 44.386719 115.164062 L 51.257812 115.164062 L 51.257812 108.292969 Z M 44.386719 108.292969"/></g></g><g clip-path="url(#d2a9565fb3)"><g clip-path="url(#7659d7bff6)"><path fill="url(#7fee0fcadc)" fill-rule="nonzero" d="M 46.269531 99.78125 L 46.269531 125.269531 L 69.875 125.269531 L 69.875 99.78125 Z M 46.269531 99.78125"/></g></g><g clip-path="url(#e66420f5a3)"><g clip-path="url(#126b90cbec)"><path fill="url(#b1894e1ab3)" fill-rule="nonzero" d="M 66.835938 113.71875 L 66.835938 116.757812 L 69.875 116.757812 L 69.875 113.71875 Z M 66.835938 113.71875"/></g></g><g clip-path="url(#9f6554bcaa)"><g clip-path="url(#b170c0e910)"><path fill="url(#a6eb9b34be)" fill-rule="nonzero" d="M 58.324219 122.230469 L 58.324219 125.269531 L 61.363281 125.269531 L 61.363281 122.230469 Z M 58.324219 122.230469"/></g></g><g fill="#545454" fill-opacity="1"><g><g><path d="M 5.667969 0 L 5.667969 -1.800781 L 2.808594 -1.800781 L 2.808594 -3.601562 L 5.175781 -3.601562 L 5.175781 -5.402344 L 2.808594 -5.402344 L 2.808594 -7.203125 L 5.515625 -7.203125 L 5.515625 -9.003906 L 1.007812 -9.003906 L 1.007812 0 Z M 5.667969 0" transform="translate(72.483569, 116.99686)"/></g></g></g><g fill="#545454" fill-opacity="1"><g><g><path d="M 0.59375 -0.578125 C 1.8125 0.0507812 2.933594 0.113281 3.4375 0.0742188 C 5.125 -0.0117188 6.15625 -1.160156 6.15625 -2.65625 C 6.15625 -4.09375 4.949219 -4.898438 3.550781 -5.414062 C 3.035156 -5.589844 2.59375 -5.816406 2.542969 -6.320312 C 2.507812 -6.824219 2.796875 -7.292969 3.4375 -7.328125 C 3.714844 -7.34375 4.28125 -7.355469 5.277344 -6.953125 L 5.503906 -8.6875 C 4.34375 -9.09375 3.726562 -9.09375 3.261719 -9.066406 C 1.761719 -8.992188 0.71875 -7.832031 0.71875 -6.320312 C 0.71875 -4.8125 1.976562 -4.09375 3.386719 -3.578125 C 3.890625 -3.398438 4.28125 -3.171875 4.320312 -2.65625 C 4.371094 -2.167969 3.917969 -1.789062 3.386719 -1.75 C 2.972656 -1.710938 1.851562 -1.738281 0.820312 -2.46875 Z M 0.59375 -0.578125" transform="translate(79.145441, 116.99686)"/></g></g></g><g fill="#545454" fill-opacity="1"><g><g><path d="M 2.808594 0 L 2.808594 -3.4375 L 4.546875 -3.4375 C 8.035156 -3.4375 8.046875 -8.992188 4.546875 -8.992188 L 1.007812 -8.992188 L 1.007812 0 Z M 2.808594 -5.1875 L 2.808594 -7.203125 L 4.394531 -7.203125 C 5.605469 -7.203125 5.605469 -5.1875 4.394531 -5.1875 Z M 2.808594 -5.1875" transform="translate(86.122144, 116.99686)"/></g></g></g><g fill="#545454" fill-opacity="1"><g><g><path d="M 5.667969 0 L 5.667969 -1.800781 L 2.808594 -1.800781 L 2.808594 -3.601562 L 5.175781 -3.601562 L 5.175781 -5.402344 L 2.808594 -5.402344 L 2.808594 -7.203125 L 5.515625 -7.203125 L 5.515625 -9.003906 L 1.007812 -9.003906 L 1.007812 0 Z M 5.667969 0" transform="translate(94.030752, 116.99686)"/></g></g></g><g fill="#545454" fill-opacity="1"><g><g><path d="M 6.738281 -6.914062 L 6.953125 -8.765625 C 6.410156 -9.003906 5.804688 -9.117188 5.175781 -9.117188 C -0.917969 -9.117188 -0.933594 0.0234375 5.175781 0.0234375 C 5.804688 0.0234375 6.597656 -0.125 7.152344 -0.351562 L 6.914062 -2.214844 C 6.574219 -2.039062 5.957031 -1.8125 5.175781 -1.8125 C 1.613281 -1.8125 1.613281 -7.304688 5.175781 -7.304688 C 5.957031 -7.304688 6.398438 -7.089844 6.738281 -6.914062 Z M 6.738281 -6.914062" transform="translate(100.692624, 116.99686)"/></g></g></g><g fill="#545454" fill-opacity="1"><g><g><path d="M 2.808594 0 L 2.808594 -9.003906 L 1.007812 -9.003906 L 1.007812 0 Z M 2.808594 0" transform="translate(108.58864, 116.99686)"/></g></g></g><g fill="#545454" fill-opacity="1"><g><g><path d="M 0.203125 0 L 2.242188 0 L 2.59375 -0.96875 L 5.578125 -0.96875 L 5.945312 0 L 7.972656 0 L 4.179688 -9.332031 L 3.992188 -9.332031 Z M 3.25 -2.65625 L 4.09375 -5 L 4.910156 -2.65625 Z M 3.25 -2.65625" transform="translate(112.731845, 116.99686)"/></g></g></g><g fill="#545454" fill-opacity="1"><g><g><path d="M 1.007812 -9.003906 L 1.007812 0 L 5.667969 0 L 5.667969 -1.800781 L 2.808594 -1.800781 L 2.808594 -9.003906 Z M 1.007812 -9.003906" transform="translate(121.27012, 116.99686)"/></g></g></g><g fill="#545454" fill-opacity="1"><g><g><path d="M 2.808594 0 L 2.808594 -9.003906 L 1.007812 -9.003906 L 1.007812 0 Z M 2.808594 0" transform="translate(127.793465, 116.99686)"/></g></g></g><g fill="#545454" fill-opacity="1"><g><g><path d="M 3.691406 -9.003906 L 1.007812 -9.003906 L 1.007812 0 L 3.691406 0 C 9.683594 0 9.683594 -9.003906 3.691406 -9.003906 Z M 3.691406 -7.203125 C 7.191406 -7.203125 7.191406 -1.800781 3.691406 -1.800781 L 2.808594 -1.800781 L 2.808594 -7.203125 Z M 3.691406 -7.203125" transform="translate(131.93667, 116.99686)"/></g></g></g><g fill="#545454" fill-opacity="1"><g><g><path d="M 0.203125 0 L 2.242188 0 L 2.59375 -0.96875 L 5.578125 -0.96875 L 5.945312 0 L 7.972656 0 L 4.179688 -9.332031 L 3.992188 -9.332031 Z M 3.25 -2.65625 L 4.09375 -5 L 4.910156 -2.65625 Z M 3.25 -2.65625" transform="translate(141.117207, 116.99686)"/></g></g></g><g fill="#545454" fill-opacity="1"><g><g><path d="M 3.691406 -9.003906 L 1.007812 -9.003906 L 1.007812 0 L 3.691406 0 C 9.683594 0 9.683594 -9.003906 3.691406 -9.003906 Z M 3.691406 -7.203125 C 7.191406 -7.203125 7.191406 -1.800781 3.691406 -1.800781 L 2.808594 -1.800781 L 2.808594 -7.203125 Z M 3.691406 -7.203125" transform="translate(149.655482, 116.99686)"/></g></g></g><g fill="#545454" fill-opacity="1"><g><g><path d="M 5.667969 0 L 5.667969 -1.800781 L 2.808594 -1.800781 L 2.808594 -3.601562 L 5.175781 -3.601562 L 5.175781 -5.402344 L 2.808594 -5.402344 L 2.808594 -7.203125 L 5.515625 -7.203125 L 5.515625 -9.003906 L 1.007812 -9.003906 L 1.007812 0 Z M 5.667969 0" transform="translate(158.836018, 116.99686)"/></g></g></g><g fill="#545454" fill-opacity="1"><g><g><path d="M 0.59375 -0.578125 C 1.8125 0.0507812 2.933594 0.113281 3.4375 0.0742188 C 5.125 -0.0117188 6.15625 -1.160156 6.15625 -2.65625 C 6.15625 -4.09375 4.949219 -4.898438 3.550781 -5.414062 C 3.035156 -5.589844 2.59375 -5.816406 2.542969 -6.320312 C 2.507812 -6.824219 2.796875 -7.292969 3.4375 -7.328125 C 3.714844 -7.34375 4.28125 -7.355469 5.277344 -6.953125 L 5.503906 -8.6875 C 4.34375 -9.09375 3.726562 -9.09375 3.261719 -9.066406 C 1.761719 -8.992188 0.71875 -7.832031 0.71875 -6.320312 C 0.71875 -4.8125 1.976562 -4.09375 3.386719 -3.578125 C 3.890625 -3.398438 4.28125 -3.171875 4.320312 -2.65625 C 4.371094 -2.167969 3.917969 -1.789062 3.386719 -1.75 C 2.972656 -1.710938 1.851562 -1.738281 0.820312 -2.46875 Z M 0.59375 -0.578125" transform="translate(165.497889, 116.99686)"/></g></g></g><g fill="#737373" fill-opacity="1"><g><g><path d="M 1.75 0.078125 C 1.257812 0.078125 0.894531 -0.0507812 0.65625 -0.3125 C 0.414062 -0.570312 0.285156 -0.988281 0.265625 -1.5625 L 1.25 -1.703125 C 1.25 -1.378906 1.285156 -1.144531 1.359375 -1 C 1.429688 -0.863281 1.546875 -0.796875 1.703125 -0.796875 C 1.890625 -0.796875 1.984375 -0.921875 1.984375 -1.171875 C 1.984375 -1.367188 1.9375 -1.539062 1.84375 -1.6875 C 1.75 -1.832031 1.609375 -1.984375 1.421875 -2.140625 L 0.96875 -2.53125 C 0.75 -2.71875 0.578125 -2.914062 0.453125 -3.125 C 0.335938 -3.34375 0.28125 -3.59375 0.28125 -3.875 C 0.28125 -4.3125 0.40625 -4.644531 0.65625 -4.875 C 0.914062 -5.113281 1.269531 -5.234375 1.71875 -5.234375 C 2.207031 -5.234375 2.539062 -5.085938 2.71875 -4.796875 C 2.894531 -4.515625 2.988281 -4.171875 3 -3.765625 L 2.015625 -3.640625 C 2.015625 -3.910156 1.992188 -4.101562 1.953125 -4.21875 C 1.910156 -4.34375 1.820312 -4.40625 1.6875 -4.40625 C 1.582031 -4.40625 1.503906 -4.363281 1.453125 -4.28125 C 1.398438 -4.195312 1.375 -4.101562 1.375 -4 C 1.375 -3.820312 1.410156 -3.671875 1.484375 -3.546875 C 1.566406 -3.429688 1.695312 -3.300781 1.875 -3.15625 L 2.296875 -2.765625 C 2.554688 -2.554688 2.753906 -2.328125 2.890625 -2.078125 C 3.035156 -1.835938 3.109375 -1.550781 3.109375 -1.21875 C 3.109375 -0.976562 3.050781 -0.757812 2.9375 -0.5625 C 2.820312 -0.363281 2.660156 -0.207031 2.453125 -0.09375 C 2.253906 0.0195312 2.019531 0.078125 1.75 0.078125 Z M 1.75 0.078125" transform="translate(91.923713, 124.058083)"/></g></g></g><g fill="#737373" fill-opacity="1"><g><g><path d="M 1.109375 -5.15625 L 2.40625 -5.15625 L 3.375 0 L 2.328125 0 L 2.140625 -1.09375 L 1.390625 -1.09375 L 1.21875 0 L 0.140625 0 Z M 2.046875 -1.765625 L 1.765625 -3.78125 L 1.484375 -1.765625 Z M 2.046875 -1.765625" transform="translate(96.097277, 124.058083)"/></g></g></g><g fill="#737373" fill-opacity="1"><g><g><path d="M 1.875 0.078125 C 1.488281 0.078125 1.179688 0.015625 0.953125 -0.109375 C 0.734375 -0.234375 0.578125 -0.414062 0.484375 -0.65625 C 0.390625 -0.90625 0.34375 -1.21875 0.34375 -1.59375 L 0.34375 -5.15625 L 1.46875 -5.15625 L 1.46875 -1.421875 C 1.46875 -1.210938 1.492188 -1.046875 1.546875 -0.921875 C 1.597656 -0.804688 1.707031 -0.75 1.875 -0.75 C 2.03125 -0.75 2.132812 -0.804688 2.1875 -0.921875 C 2.238281 -1.046875 2.265625 -1.210938 2.265625 -1.421875 L 2.265625 -5.15625 L 3.40625 -5.15625 L 3.40625 -1.59375 C 3.40625 -1.21875 3.359375 -0.90625 3.265625 -0.65625 C 3.171875 -0.414062 3.007812 -0.234375 2.78125 -0.109375 C 2.5625 0.015625 2.257812 0.078125 1.875 0.078125 Z M 1.9375 -6.859375 L 2.984375 -6.859375 L 2.1875 -5.578125 L 1.53125 -5.578125 Z M 1.9375 -6.859375" transform="translate(100.506936, 124.058083)"/></g></g></g><g fill="#737373" fill-opacity="1"><g><g><path d="M 0.375 -5.15625 L 1.6875 -5.15625 C 2.132812 -5.15625 2.484375 -5.097656 2.734375 -4.984375 C 2.984375 -4.878906 3.160156 -4.707031 3.265625 -4.46875 C 3.367188 -4.238281 3.421875 -3.925781 3.421875 -3.53125 L 3.421875 -1.65625 C 3.421875 -1.257812 3.367188 -0.941406 3.265625 -0.703125 C 3.160156 -0.460938 2.984375 -0.285156 2.734375 -0.171875 C 2.484375 -0.0546875 2.140625 0 1.703125 0 L 0.375 0 Z M 1.703125 -0.796875 C 1.867188 -0.796875 1.988281 -0.816406 2.0625 -0.859375 C 2.144531 -0.910156 2.195312 -0.984375 2.21875 -1.078125 C 2.238281 -1.171875 2.25 -1.304688 2.25 -1.484375 L 2.25 -3.734375 C 2.25 -3.898438 2.238281 -4.023438 2.21875 -4.109375 C 2.195312 -4.191406 2.144531 -4.253906 2.0625 -4.296875 C 1.976562 -4.335938 1.859375 -4.359375 1.703125 -4.359375 L 1.53125 -4.359375 L 1.53125 -0.796875 Z M 1.703125 -0.796875" transform="translate(105.152695, 124.058083)"/></g></g></g><g fill="#737373" fill-opacity="1"><g><g><path d="M 0.375 -5.15625 L 2.703125 -5.15625 L 2.703125 -4.390625 L 1.53125 -4.390625 L 1.53125 -3.109375 L 2.421875 -3.109375 L 2.421875 -2.3125 L 1.53125 -2.3125 L 1.53125 -0.765625 L 2.71875 -0.765625 L 2.71875 0 L 0.375 0 Z M 0.375 -5.15625" transform="translate(109.785689, 124.058083)"/></g></g></g><g fill="#737373" fill-opacity="1"><g><g><path d="M 0.390625 -5.15625 L 1.53125 -5.15625 L 1.53125 0 L 0.390625 0 Z M 0.390625 -5.15625" transform="translate(116.058985, 124.058083)"/></g></g></g><g fill="#737373" fill-opacity="1"><g><g><path d="M 0.375 -5.15625 L 1.1875 -5.15625 L 2.25 -2.671875 L 2.25 -5.15625 L 3.1875 -5.15625 L 3.1875 0 L 2.421875 0 L 1.359375 -2.671875 L 1.359375 0 L 0.375 0 Z M 0.375 -5.15625" transform="translate(118.873394, 124.058083)"/></g></g></g><g fill="#737373" fill-opacity="1"><g><g><path d="M 0.84375 -4.3125 L 0.0625 -4.3125 L 0.0625 -5.15625 L 2.765625 -5.15625 L 2.765625 -4.3125 L 2 -4.3125 L 2 0 L 0.84375 0 Z M 0.84375 -4.3125" transform="translate(123.346862, 124.058083)"/></g></g></g><g fill="#737373" fill-opacity="1"><g><g><path d="M 0.375 -5.15625 L 2.703125 -5.15625 L 2.703125 -4.390625 L 1.53125 -4.390625 L 1.53125 -3.109375 L 2.421875 -3.109375 L 2.421875 -2.3125 L 1.53125 -2.3125 L 1.53125 -0.765625 L 2.71875 -0.765625 L 2.71875 0 L 0.375 0 Z M 0.375 -5.15625" transform="translate(127.080139, 124.058083)"/></g></g></g><g fill="#737373" fill-opacity="1"><g><g><path d="M 1.734375 0.078125 C 1.222656 0.078125 0.859375 -0.078125 0.640625 -0.390625 C 0.421875 -0.703125 0.3125 -1.140625 0.3125 -1.703125 L 0.3125 -3.4375 C 0.3125 -4.019531 0.425781 -4.460938 0.65625 -4.765625 C 0.894531 -5.078125 1.296875 -5.234375 1.859375 -5.234375 C 2.398438 -5.234375 2.785156 -5.097656 3.015625 -4.828125 C 3.253906 -4.566406 3.375 -4.195312 3.375 -3.71875 L 3.375 -3.390625 L 2.25 -3.390625 L 2.25 -3.8125 C 2.25 -4.019531 2.222656 -4.175781 2.171875 -4.28125 C 2.128906 -4.382812 2.03125 -4.4375 1.875 -4.4375 C 1.707031 -4.4375 1.597656 -4.378906 1.546875 -4.265625 C 1.503906 -4.148438 1.484375 -3.988281 1.484375 -3.78125 L 1.484375 -1.390625 C 1.484375 -1.179688 1.507812 -1.019531 1.5625 -0.90625 C 1.625 -0.789062 1.738281 -0.734375 1.90625 -0.734375 C 2.207031 -0.734375 2.359375 -0.957031 2.359375 -1.40625 L 2.359375 -2.015625 L 1.890625 -2.015625 L 1.890625 -2.671875 L 3.375 -2.671875 L 3.375 0 L 2.625 0 L 2.5625 -0.421875 C 2.40625 -0.0859375 2.128906 0.078125 1.734375 0.078125 Z M 1.734375 0.078125" transform="translate(130.826174, 124.058083)"/></g></g></g><g fill="#737373" fill-opacity="1"><g><g><path d="M 0.375 -5.15625 L 1.796875 -5.15625 C 2.367188 -5.15625 2.796875 -5.054688 3.078125 -4.859375 C 3.367188 -4.660156 3.515625 -4.304688 3.515625 -3.796875 C 3.515625 -3.453125 3.46875 -3.175781 3.375 -2.96875 C 3.289062 -2.769531 3.128906 -2.613281 2.890625 -2.5 L 3.59375 0 L 2.421875 0 L 1.84375 -2.3125 L 1.53125 -2.3125 L 1.53125 0 L 0.375 0 Z M 1.84375 -2.96875 C 2.070312 -2.96875 2.226562 -3.023438 2.3125 -3.140625 C 2.40625 -3.265625 2.453125 -3.453125 2.453125 -3.703125 C 2.453125 -3.929688 2.410156 -4.101562 2.328125 -4.21875 C 2.242188 -4.34375 2.097656 -4.40625 1.890625 -4.40625 L 1.53125 -4.40625 L 1.53125 -2.96875 Z M 1.84375 -2.96875" transform="translate(135.433647, 124.058083)"/></g></g></g><g fill="#737373" fill-opacity="1"><g><g><path d="M 1.109375 -5.15625 L 2.40625 -5.15625 L 3.375 0 L 2.328125 0 L 2.140625 -1.09375 L 1.390625 -1.09375 L 1.21875 0 L 0.140625 0 Z M 2.046875 -1.765625 L 1.765625 -3.78125 L 1.484375 -1.765625 Z M 2.046875 -1.765625" transform="translate(140.155976, 124.058083)"/></g></g></g><g fill="#737373" fill-opacity="1"><g><g><path d="M 0.375 -5.15625 L 1.6875 -5.15625 C 2.132812 -5.15625 2.484375 -5.097656 2.734375 -4.984375 C 2.984375 -4.878906 3.160156 -4.707031 3.265625 -4.46875 C 3.367188 -4.238281 3.421875 -3.925781 3.421875 -3.53125 L 3.421875 -1.65625 C 3.421875 -1.257812 3.367188 -0.941406 3.265625 -0.703125 C 3.160156 -0.460938 2.984375 -0.285156 2.734375 -0.171875 C 2.484375 -0.0546875 2.140625 0 1.703125 0 L 0.375 0 Z M 1.703125 -0.796875 C 1.867188 -0.796875 1.988281 -0.816406 2.0625 -0.859375 C 2.144531 -0.910156 2.195312 -0.984375 2.21875 -1.078125 C 2.238281 -1.171875 2.25 -1.304688 2.25 -1.484375 L 2.25 -3.734375 C 2.25 -3.898438 2.238281 -4.023438 2.21875 -4.109375 C 2.195312 -4.191406 2.144531 -4.253906 2.0625 -4.296875 C 1.976562 -4.335938 1.859375 -4.359375 1.703125 -4.359375 L 1.53125 -4.359375 L 1.53125 -0.796875 Z M 1.703125 -0.796875" transform="translate(144.565636, 124.058083)"/></g></g></g><g fill="#737373" fill-opacity="1"><g><g><path d="M 1.109375 -5.15625 L 2.40625 -5.15625 L 3.375 0 L 2.328125 0 L 2.140625 -1.09375 L 1.390625 -1.09375 L 1.21875 0 L 0.140625 0 Z M 2.046875 -1.765625 L 1.765625 -3.78125 L 1.484375 -1.765625 Z M 2.046875 -1.765625" transform="translate(149.198632, 124.058083)"/></g></g></g><path fill="none" stroke="#0d328c" stroke-linecap="butt" stroke-linejoin="miter" stroke-miterlimit="4" stroke-opacity="1" stroke-width="2" d="M 0.000317734 0.998128 L 198.496605 0.998128" transform="matrix(0.747771, 0, 0, 0.7496, 38.042731, 87.794772)"/><path fill="none" stroke="#0d328c" stroke-linecap="butt" stroke-linejoin="miter" stroke-miterlimit="4" stroke-opacity="1" stroke-width="2" d="M 0.000317734 1.000846 L 198.496605 1.000846" transform="matrix(0.747771, 0, 0, 0.7496, 38.042731, 138.546641)"/></svg>